<svg width="16" height="14" viewBox="0 0 16 14" fill="none" xmlns="http://www.w3.org/2000/svg">
<path d="M13.8936 2.07327C13.5531 1.7326 13.1488 1.46237 12.7038 1.27799C12.2588 1.09362 11.7819 0.998718 11.3002 0.998718C10.8186 0.998718 10.3416 1.09362 9.89667 1.27799C9.4517 1.46237 9.04741 1.7326 8.70691 2.07327L8.00024 2.77994L7.29357 2.07327C6.60578 1.38547 5.67293 0.999075 4.70024 0.999075C3.72755 0.999075 2.7947 1.38547 2.10691 2.07327C1.41911 2.76106 1.03271 3.69391 1.03271 4.6666C1.03271 5.63929 1.41911 6.57214 2.10691 7.25994L2.81358 7.9666L8.00024 13.1533L13.1869 7.9666L13.8936 7.25994C14.2342 6.91943 14.5045 6.51514 14.6889 6.07017C14.8732 5.6252 14.9681 5.14826 14.9681 4.6666C14.9681 4.18494 14.8732 3.708 14.6889 3.26303C14.5045 2.81806 14.2342 2.41377 13.8936 2.07327V2.07327Z" stroke="#888888" stroke-linecap="round" stroke-linejoin="round"/>
</svg>
